<svg width="511" height="133" viewBox="0 0 511 133" fill="none" xmlns="http://www.w3.org/2000/svg">
<g clip-path="url(#clip0_31_161)">
<path d="M42.18 83.88V131.88H33L11.37 104.38V131.84H0V83.84H9.23L30.8 111.37V83.88H42.18Z" fill="#1D1D1B"/>
<path d="M74 132.88C66.7 132.88 60.6433 130.507 55.83 125.76C53.4648 123.444 51.6029 120.666 50.3606 117.598C49.1183 114.53 48.5223 111.239 48.61 107.93C48.5135 104.624 49.1015 101.333 50.3371 98.2648C51.5727 95.1965 53.4291 92.4168 55.79 90.1C60.5967 85.3667 66.6667 83 74 83C81.3333 83 87.3733 85.3667 92.12 90.1C94.4831 92.4087 96.3441 95.1804 97.5864 98.2416C98.8288 101.303 99.4258 104.587 99.34 107.89C99.4272 111.194 98.8309 114.481 97.5884 117.544C96.346 120.607 94.4843 123.38 92.12 125.69C87.3 130.443 81.2467 132.817 73.96 132.81L74 132.88ZM84 118.26C86.4596 115.378 87.8107 111.714 87.8107 107.925C87.8107 104.136 86.4596 100.472 84 97.59C82.7257 96.2275 81.173 95.1553 79.4475 94.4461C77.7221 93.7369 75.8641 93.4074 74 93.48C72.1363 93.4107 70.2794 93.7417 68.5544 94.4507C66.8294 95.1597 65.2764 96.2301 64 97.59C61.5404 100.472 60.1893 104.136 60.1893 107.925C60.1893 111.714 61.5404 115.378 64 118.26C65.2734 119.624 66.8257 120.698 68.5512 121.409C70.2768 122.12 72.1351 122.451 74 122.38C75.8649 122.451 77.7233 122.12 79.4488 121.409C81.1743 120.698 82.7266 119.624 84 118.26Z" fill="#1D1D1B"/>
<path d="M303.79 132.88C296.497 132.88 290.443 130.507 285.63 125.76C283.26 123.448 281.394 120.67 280.15 117.601C278.906 114.533 278.31 111.24 278.4 107.93C278.31 104.62 278.906 101.327 280.15 98.2588C281.394 95.1903 283.26 92.4125 285.63 90.1C290.443 85.3667 296.497 83 303.79 83C311.083 83 317.153 85.3667 322 90.1C324.368 92.4056 326.233 95.1766 327.477 98.2383C328.721 101.3 329.318 104.586 329.23 107.89C329.316 111.195 328.718 114.482 327.474 117.545C326.23 120.608 324.366 123.381 322 125.69C317.18 130.443 311.127 132.817 303.84 132.81L303.79 132.88ZM313.79 118.26C316.255 115.381 317.61 111.715 317.61 107.925C317.61 104.135 316.255 100.469 313.79 97.59C311.116 94.9554 307.514 93.4786 303.76 93.4786C300.006 93.4786 296.404 94.9554 293.73 97.59C291.265 100.469 289.91 104.135 289.91 107.925C289.91 111.715 291.265 115.381 293.73 118.26C296.401 120.899 300.005 122.38 303.76 122.38C307.515 122.38 311.119 120.899 313.79 118.26V118.26Z" fill="#1D1D1B"/>
<path d="M147.91 83.88V131.88H138.68L117.11 104.42V131.88H105.73V83.88H115L136.58 111.37V83.88H147.91Z" fill="#1D1D1B"/>
<path d="M155.81 106.49H181.13V115.39H155.81V106.49Z" fill="#1D1D1B"/>
<path d="M212 83.91C214.336 83.829 216.661 84.2606 218.812 85.1745C220.962 86.0885 222.887 87.4625 224.45 89.2C227.536 92.433 229.258 96.7306 229.258 101.2C229.258 105.669 227.536 109.967 224.45 113.2C221.243 116.707 216.973 118.457 211.64 118.45H200.26V131.86H189V83.86H212.1L212 83.91ZM211.3 108.26C212.229 108.287 213.152 108.113 214.007 107.749C214.861 107.384 215.627 106.839 216.25 106.15C217.518 104.833 218.215 103.068 218.19 101.24C218.218 99.4268 217.561 97.6698 216.35 96.32C215.787 95.6478 215.081 95.1096 214.283 94.7446C213.486 94.3796 212.617 94.1969 211.74 94.21H200.19V108.3H211.3V108.26Z" fill="#1D1D1B"/>
<path d="M253.85 116.09H245.62V131.84H234.38V83.84H258.38C260.662 83.7514 262.937 84.1436 265.058 84.9912C267.179 85.8388 269.098 87.1229 270.69 88.76C273.304 91.3323 274.946 94.7309 275.336 98.3774C275.726 102.024 274.841 105.693 272.83 108.76C271.103 111.434 268.577 113.496 265.61 114.65L277.18 131.84H264.08L253.85 116.09ZM245.58 106.09H257.49C259.287 106.15 261.038 105.516 262.38 104.32C262.99 103.78 263.476 103.114 263.804 102.368C264.132 101.623 264.294 100.815 264.28 100C264.291 99.2077 264.133 98.4222 263.815 97.6961C263.498 96.97 263.029 96.3201 262.44 95.79C261.85 95.2227 261.155 94.777 260.393 94.4784C259.631 94.1799 258.818 94.0343 258 94.05H245.62L245.58 106.09Z" fill="#1D1D1B"/>
<path d="M372.69 94.18H357.41V131.84H346V94.18H330.78V83.88H372.69V94.18Z" fill="#1D1D1B"/>
<path d="M388.92 94.18V102.51H410.42V112.44H388.92V121.57H413.83V131.84H377.83V83.84H413.9V94.14L388.92 94.18ZM399.45 78.56H390.22L395.34 68.83H407.28L399.45 78.56Z" fill="#1D1D1B"/>
<path d="M468 110.24C468.097 113.26 467.548 116.266 466.389 119.056C465.23 121.847 463.488 124.357 461.28 126.42C456.8 130.64 450.913 132.75 443.62 132.75C436.16 132.75 430.01 130.37 425.12 125.59C422.732 123.293 420.848 120.524 419.588 117.46C418.328 114.395 417.719 111.102 417.8 107.79C417.716 104.482 418.32 101.193 419.574 98.1313C420.827 95.0691 422.702 92.3003 425.08 90C427.438 87.6491 430.25 85.8021 433.345 84.5712C436.439 83.3404 439.751 82.7514 443.08 82.84C448.342 82.681 453.522 84.1667 457.9 87.09C461.772 89.6728 464.751 93.389 466.43 97.7301L455.86 100.73C453.347 95.9434 449.13 93.5434 443.21 93.53C441.346 93.4679 439.491 93.8031 437.766 94.5135C436.042 95.2238 434.489 96.2931 433.21 97.65C431.922 98.9851 430.912 100.563 430.239 102.292C429.566 104.02 429.244 105.866 429.29 107.72C429.217 111.525 430.656 115.204 433.29 117.95C435.96 120.8 439.71 122.2 444.49 122.2C447.295 122.332 450.063 121.519 452.35 119.89C454.226 118.538 455.557 116.558 456.1 114.31L443.52 114.37V104.57H468.04L468 110.24Z" fill="#1D1D1B"/>
<path d="M485.55 94.18V102.51H507.06V112.44H485.55V121.57H510.47V131.84H474.47V83.84H510.56V94.14L485.55 94.18ZM496.09 78.56H486.86L492 68.83H503.94L496.09 78.56Z" fill="#1D1D1B"/>
<path d="M223.7 1.67004V29.67C223.7 35.99 221.83 41.04 218.08 44.86C214.33 48.68 209.08 50.58 202.4 50.58C195.72 50.58 190.4 48.67 186.68 44.86C182.96 41.05 181.09 36 181.09 29.7V1.70004H192.6V29.5C192.47 32.2961 193.362 35.0439 195.11 37.23C196.78 39.23 199.22 40.17 202.43 40.17C205.64 40.17 208.08 39.17 209.76 37.23C211.5 35.0403 212.388 32.2942 212.26 29.5V1.67004H223.7Z" fill="#1D1D1B"/>
<path d="M256.23 1.67004H267.74V49.67H256.23V1.67004Z" fill="#1D1D1B"/>
<path d="M340.36 39.57V49.64H300.76V42L324.07 11.7H301.13V1.67004H339.69V9.43004L316.61 39.57H340.36Z" fill="#1D1D1B"/>
<path d="M413.3 39.57V49.64H373.7V42L397 11.74H374.07V1.67004H412.64V9.43004L389.56 39.57H413.3Z" fill="#1D1D1B"/>
<path d="M125.039 34.92C116.699 47.21 143.349 47.62 157.959 48.29L165.329 39.41C149.009 41.07 119.909 41.17 132.329 26.02L125.039 34.92Z" fill="#BE1622"/>
<path d="M126.399 49.9C119.106 49.9 113.052 47.5267 108.239 42.78C105.875 40.4733 104.013 37.7036 102.769 34.6442C101.525 31.5848 100.926 28.3016 101.009 25C100.919 21.6901 101.515 18.3973 102.759 15.3288C104.003 12.2603 105.869 9.48246 108.239 7.17C113.052 2.39 119.106 0 126.399 0C133.692 0 139.746 2.37333 144.559 7.12C146.923 9.42986 148.785 12.2032 150.027 15.2662C151.27 18.3292 151.866 21.6158 151.779 24.92C151.867 28.2237 151.27 31.51 150.026 34.5717C148.781 37.6334 146.917 40.4044 144.549 42.71C139.736 47.4633 133.682 49.84 126.389 49.84L126.399 49.9ZM136.399 35.29C138.972 32.4915 140.353 28.8003 140.249 25C140.377 21.1893 139.006 17.4803 136.429 14.67C133.758 12.0306 130.154 10.5505 126.399 10.5505C122.644 10.5505 119.04 12.0306 116.369 14.67C113.792 17.4803 112.421 21.1893 112.549 25C112.423 28.8132 113.794 32.5243 116.369 35.34C119.042 37.9746 122.645 39.4514 126.399 39.4514C130.152 39.4514 133.755 37.9746 136.429 35.34L136.399 35.29Z" fill="#1D1D1B"/>
<path d="M125.039 34.92C143.509 32.87 141.779 49 143.499 62.48L150.869 53.59C148.869 39.72 147.249 26.91 132.379 26.02L125.039 34.92Z" fill="#BE1622"/>
</g>
<defs>
<clipPath id="clip0_31_161">
<rect width="510.54" height="132.88" fill="white"/>
</clipPath>
</defs>
</svg>
