<svg width="74" height="72" viewBox="0 0 74 72" fill="none" xmlns="http://www.w3.org/2000/svg">
<g clip-path="url(#clip0_31_3)">
<path d="M27.6432 40.2452C18.0426 54.4027 48.712 54.8807 65.5199 55.6567L74.0104 45.4204C55.2276 47.3291 21.7362 47.4573 36.0922 29.9882L27.6432 40.2452Z" fill="#BE1622"/>
<path d="M29.2098 57.5029C20.8196 57.5029 13.8497 54.7698 8.3001 49.3035C2.75047 43.8373 -0.0162713 36.9866 -0.000131979 28.7514C-0.000131979 20.5439 2.76661 13.6967 8.3001 8.20967C13.8336 2.72263 20.8035 -0.0139564 29.2098 -0.000100235C37.5999 -0.000100235 44.5663 2.73649 50.109 8.20967C55.6517 13.6828 58.4185 20.5185 58.4093 28.7168C58.4093 36.9311 55.6425 43.7669 50.109 49.2239C44.5756 54.6809 37.6091 57.4186 29.2098 57.4371V57.5029ZM40.754 40.6573C43.6798 37.5004 45.1427 33.5318 45.1427 28.7514C45.1427 23.971 43.6798 20.0024 40.754 16.8455C37.8328 13.684 33.9847 12.1032 29.2098 12.1032C24.4348 12.1032 20.5867 13.684 17.6655 16.8455C14.7397 20.0047 13.2768 23.9733 13.2768 28.7514C13.2768 33.5295 14.7397 37.5016 17.6655 40.6677C20.589 43.8269 24.4371 45.4076 29.2098 45.41C33.9824 45.4123 37.8305 43.8315 40.754 40.6677V40.6573Z" fill="#1D1D1B"/>
<path d="M27.6432 40.2452C48.9022 37.8827 46.8928 56.5054 48.8918 72L57.3684 61.7672C55.0859 45.7772 53.2183 31.017 36.0922 29.9882L27.6432 40.2452Z" fill="#BE1622"/>
</g>
<defs>
<clipPath id="clip0_31_3">
<rect width="74" height="72" fill="white"/>
</clipPath>
</defs>
</svg>
